<?xml version="1.0" encoding="UTF-8"?><svg id="a" xmlns="http://www.w3.org/2000/svg" viewBox="0 0 2978.64 2362.42"><path id="b" d="M2219.94,541.62c64,97-121,260,220,320s977-450-359-557c-1336-107-827.17,935.5-187,1007s-10.17,430-10.17,430c0,0-432.83,224-1072.83,0-640-224-264-540,104.76-593.17,368.76-53.17,328.24-319.83,145.24-396.83-183-77-487,40-520-177-33-217,1023-156,1029.5-430s-1149.5-91-1309.5,0S-17.06,431.62,136.94,638.62c154,207-310,1362-63,1456s1373,478,2400,114,209-1015-37-1094-952,67-673-373c279-440,392-297,456-200Z"/></svg>